<svg id="Capa_1" enable-background="new 0 0 512 512" height="512" viewBox="0 0 512 512" width="512" xmlns="http://www.w3.org/2000/svg"><g><path d="m292.54 420.075c2.926-2.932 2.92-7.68-.013-10.606-2.931-2.925-7.68-2.921-10.606.012-9.251 9.273-21.554 14.379-34.641 14.379-13.086 0-25.388-5.106-34.64-14.379-2.925-2.931-7.673-2.938-10.606-.012-2.932 2.926-2.938 7.674-.013 10.606 12.085 12.113 28.159 18.784 45.259 18.784 17.101 0 33.175-6.671 45.26-18.784z"/><path d="m498.847 42.825c-.48-5.19-.83-9.679-1.14-13.639-1.34-16.859-1.89-23.838-8.09-27.558-5.77-3.47-11.589-.93-21.239 3.26-5.03 2.2-11.299 4.92-19.569 7.849-38.788 13.709-83.266 12.869-121.654 10.249-4.13-.29-7.71 2.84-7.99 6.969-.29 4.13 2.84 7.709 6.97 7.989 39.918 2.73 86.306 3.55 127.674-11.069 8.769-3.1 15.589-6.069 20.559-8.229 2.41-1.05 5.02-2.18 6.93-2.9.55 3.23.99 8.799 1.45 14.619.32 4 .68 8.539 1.16 13.819 4.95 54.345 4.84 152.326-50.397 203.822-7.35-1.22-14.269-2.35-20.839-3.43-4.04-.66-7.94-1.3-11.719-1.92-1.7-2.04-4.14-3.12-5.49-3.67l-32.038-15.349-15.369-32.027c-.9-2.23-3.15-7.349-8.82-7.349-5.68 0-7.93 5.12-8.83 7.349l-15.369 32.027-1.81.87c-29.359-8.559-61.657-21.308-113.775-44.866-25.679-11.609-41.898 3.59-50.598 11.749-2.26 2.11-4.81 4.68-7.76 7.659-16.099 16.239-42.238 42.606-74.866 48.466 0-1.21 0-2.42-.01-3.61-.13-52.075-.22-86.482 29.719-112.79 6.51-5.7 14.469-11.019 23.649-15.809l.37-.19c5.77-3.02 8.37-4.63 9.38-11.209.13-.85.27-1.81.57-3.13 2.86-12.759 7.15-23.758 12.749-32.687 27.109-43.136 86.756-38.107 149.903-32.797 4.1.35 7.76-2.71 8.099-6.839.35-4.13-2.71-7.759-6.84-8.099-32.369-2.73-65.847-5.549-94.456-1.37-32.278 4.72-54.977 18.168-69.407 41.126-6.52 10.389-11.459 22.968-14.689 37.387-.32 1.44-.52 2.58-.66 3.48-.48.26-1.04.55-1.59.84l-.37.19c-10.23 5.34-19.179 11.329-26.599 17.828-35.068 30.817-34.958 71.984-34.828 124.109.004 1.501.007 3.024.01 4.549h-12.57c-15.25.002-27.658 12.406-27.658 27.654v19.925c0 12.516 5.631 25.558 15.854 36.725 8.455 9.234 19.277 16.196 30.25 19.57 3.335 11.529 8.049 23.289 14.103 35.013 1.332 2.58 3.954 4.06 6.67 4.06 1.159 0 2.335-.27 3.435-.837 3.68-1.9 5.123-6.424 3.222-10.105-11.973-23.185-18.302-46.293-18.302-66.824v-24.522l34.42 13.582v32.141c0 9.558 7.765 17.334 17.31 17.334h56.45c25.369 0 42.873-8.271 52.024-24.582 5.56-9.911 6.97-20.98 7.326-30.189 8.659-4.513 18.359-4.515 27.036-.01.356 9.212 1.762 20.284 7.328 30.2 9.15 16.309 26.649 24.578 52.017 24.578h56.457c9.559 0 17.339-7.769 17.339-17.328v-32.145l34.416-13.581v24.522c0 30.971-14.565 67.651-39.959 100.634-26.317 34.182-60.584 60.338-96.489 73.651-32.538 12.066-56.72 12.065-89.231 0-37.849-14.03-74.713-43.148-101.141-79.885-2.419-3.363-7.107-4.128-10.468-1.709-3.362 2.418-4.127 7.105-1.709 10.467 28.126 39.099 67.528 70.15 108.102 85.19 17.925 6.653 33.868 9.978 49.821 9.978 15.948 0 31.906-3.326 49.84-9.977 38.511-14.279 75.147-42.18 103.159-78.564 17.527-22.765 30.258-47.357 37.156-71.086 10.981-3.372 21.815-10.336 30.28-19.573 10.234-11.168 15.87-24.211 15.87-36.727v-19.925c0-15.248-12.408-27.652-27.659-27.652h-2.082c19.578-22.495 33.214-52.403 40.617-89.201 6.854-34.039 8.324-73.225 4.385-116.471zm-472.848 253.248v-19.925c0-6.977 5.679-12.654 12.66-12.654h12.575v50.181c0 6.747.615 13.721 1.793 20.843-15.155-8.031-27.028-24.002-27.028-38.445zm297.896-60.045c1.54-.74 2.79-1.98 3.53-3.52l11.81-24.618 11.809 24.618c.73 1.54 1.98 2.78 3.52 3.52l24.589 11.779-24.599 11.799c-1.53.74-2.77 1.98-3.51 3.52l-2.3 4.79-7.2 14.999-2.31 4.81-2.31-4.81-7.21-14.999-2.3-4.79c-.73-1.54-1.97-2.78-3.51-3.52l-24.599-11.799zm-105.009 52.77c.003 9.126.006 21.625-5.53 31.492-6.388 11.387-19.126 16.922-38.942 16.922h-56.45c-1.253 0-2.31-1.07-2.31-2.336v-49.63c0-1.266 1.058-2.336 2.31-2.336h98.612c1.253 0 2.31 1.07 2.31 2.336zm42.255-7.469c-9.05-3.014-18.677-3.013-27.717.004-1.779-7.677-8.649-13.421-16.848-13.421h-98.612c-9.544 0-17.31 7.776-17.31 17.335v1.365l-34.42-13.582v-10.337c38.655-5.829 68.861-36.282 85.511-53.082 2.85-2.87 5.3-5.35 7.36-7.269 10.319-9.669 18.809-15.979 34.168-9.039 43.828 19.818 73.906 32.107 100.065 40.736l-10.339 4.95c-2.2.91-7.35 3.18-7.33 8.849.02 5.649 5.13 7.899 7.35 8.789l23.519 11.289h-28.519c-8.213-.001-15.096 5.737-16.878 13.413zm115.461 55.88h-56.457c-19.809 0-32.548-5.53-38.938-16.918-4.689-8.353-5.399-18.583-5.508-27.061.002-.124-.001-.248-.005-.372-.015-1.406-.017-2.767-.017-4.055v-3.56c0-1.26 1.07-2.33 2.34-2.33h42.268l10.119 21.078c.9 2.24 3.15 7.379 8.83 7.379 2.84 0 4.82-1.28 6.21-2.85 1.38-1.57 2.16-3.41 2.61-4.53l10.119-21.078h18.429c1.26 0 2.34 1.07 2.34 2.33v12.158c-.002.07 0 .14 0 .209v37.27c0 1.26-1.08 2.33-2.34 2.33zm17.34-50.6v-1.366c0-9.559-7.78-17.328-17.339-17.328h-4.68l23.019-11.049c4.9.81 9.979 1.64 15.309 2.51 5.746.944 11.767 1.928 18.107 2.977v10.676zm61.99-23.115c6.98 0 12.66 5.676 12.66 12.654v19.925c0 14.439-11.879 30.408-27.044 38.442 1.19-7.119 1.81-14.093 1.81-20.84v-50.181z"/></g></svg>