<?xml version="1.0" encoding="UTF-8"?>
<svg xmlns="http://www.w3.org/2000/svg" id="artwork" width="512" height="512" viewBox="0 0 64 64"><path d="M31,.5H27A2.50263,2.50263,0,0,0,24.5,3V30.5h-3V9A2.50263,2.50263,0,0,0,19,6.5H15A2.50263,2.50263,0,0,0,12.5,9V30.5h-3V15A2.50263,2.50263,0,0,0,7,12.5H3A2.50263,2.50263,0,0,0,.5,15V32A1.50007,1.50007,0,0,0,2,33.5H32A1.50007,1.50007,0,0,0,33.5,32V3A2.50263,2.50263,0,0,0,31,.5Z" style="fill:#3e3ef4"/><path d="M40.99845,63.5h-22.25a1.50027,1.50027,0,0,1-1.48-1.74512,18.02441,18.02441,0,0,0-5.04688-15.831,26.58076,26.58076,0,0,1-5.25488-7.26172,1.49977,1.49977,0,1,1,2.6914-1.32422,23.596,23.596,0,0,0,4.66358,6.44336A20.96318,20.96318,0,0,1,20.44474,60.5H39.641l.68457-6.84863A3.48969,3.48969,0,0,1,43.80851,50.5h7.93994a2.50263,2.50263,0,0,0,2.5-2.5V39.5a1.50007,1.50007,0,0,1,1.5-1.5H59.5712L54.40665,27.6709A1.50261,1.50261,0,0,1,54.24845,27,23.36087,23.36087,0,0,0,37.56388,4.50781,1.49988,1.49988,0,1,1,38.433,1.63672,26.33944,26.33944,0,0,1,57.246,26.6416l6.09423,12.1875A1.50085,1.50085,0,0,1,61.99845,41h-4.75v7a5.50654,5.50654,0,0,1-5.5,5.5H43.80851a.49822.49822,0,0,0-.49756.4502l-.81983,8.19921A1.50021,1.50021,0,0,1,40.99845,63.5Z"/></svg>
